<svg width="64" height="64" viewBox="0 0 64 64" fill="none" xmlns="http://www.w3.org/2000/svg">
  <!-- Background Circle with Professional Gradient -->
  <circle cx="32" cy="32" r="30" fill="url(#backgroundGradient)" stroke="url(#borderGradient)" strokeWidth="2"/>
  
  <!-- Subtle Grid Pattern -->
  <g opacity="0.1" stroke="#ffffff" strokeWidth="0.5">
    <line x1="16" y1="8" x2="16" y2="56"/>
    <line x1="24" y1="8" x2="24" y2="56"/>
    <line x1="40" y1="8" x2="40" y2="56"/>
    <line x1="48" y1="8" x2="48" y2="56"/>
    <line x1="8" y1="16" x2="56" y2="16"/>
    <line x1="8" y1="24" x2="56" y2="24"/>
    <line x1="8" y1="40" x2="56" y2="40"/>
    <line x1="8" y1="48" x2="56" y2="48"/>
  </g>
  
  <!-- GPS Satellites (Subtle) -->
  <g opacity="0.3">
    <circle cx="12" cy="12" r="1.5" fill="#fbbf24"/>
    <path d="M12 12 L24 24" stroke="#fbbf24" strokeWidth="0.8" strokeDasharray="1,1"/>
    
    <circle cx="52" cy="16" r="1.5" fill="#fbbf24"/>
    <path d="M52 16 L40 28" stroke="#fbbf24" strokeWidth="0.8" strokeDasharray="1,1"/>
    
    <circle cx="48" cy="52" r="1.5" fill="#fbbf24"/>
    <path d="M48 52 L36 40" stroke="#fbbf24" strokeWidth="0.8" strokeDasharray="1,1"/>
  </g>
  
  <!-- Main Letter 'S' -->
  <g transform="translate(32, 32)">
    <!-- S Letter Path with Professional Styling -->
    <path d="M-12 -16 
             C-12 -20, -8 -24, -4 -24
             L8 -24
             C12 -24, 16 -20, 16 -16
             C16 -12, 12 -8, 8 -8
             L-4 -8
             C-6 -8, -8 -6, -8 -4
             C-8 -2, -6 0, -4 0
             L8 0
             C12 0, 16 4, 16 8
             C16 12, 12 16, 8 16
             L-8 16
             C-12 16, -16 12, -16 8
             C-16 4, -12 0, -8 0
             L4 0
             C6 0, 8 2, 8 4
             C8 6, 6 8, 4 8
             L-8 8
             C-12 8, -16 4, -16 0
             Z" 
          fill="url(#letterGradient)" 
          stroke="url(#letterStroke)" 
          strokeWidth="1"
          filter="url(#letterShadow)"/>
    
    <!-- Inner Highlight -->
    <path d="M-8 -20
             C-8 -22, -6 -24, -4 -24
             L6 -24
             C8 -24, 10 -22, 10 -20
             M-4 -4
             C-2 -4, 0 -2, 0 0
             L6 0
             C8 0, 10 2, 10 4
             C10 6, 8 8, 6 8
             L-6 8
             C-8 8, -10 6, -10 4" 
          fill="none" 
          stroke="rgba(255,255,255,0.4)" 
          strokeWidth="1.5" 
          strokeLinecap="round"/>
  </g>
  
  <!-- Corner Survey Points -->
  <g fill="#10b981" opacity="0.6">
    <circle cx="16" cy="16" r="1"/>
    <circle cx="48" cy="16" r="1"/>
    <circle cx="16" cy="48" r="1"/>
    <circle cx="48" cy="48" r="1"/>
  </g>
  
  <!-- Connecting Survey Lines -->
  <g stroke="#10b981" strokeWidth="0.5" opacity="0.4">
    <line x1="16" y1="16" x2="48" y2="16"/>
    <line x1="48" y1="16" x2="48" y2="48"/>
    <line x1="48" y1="48" x2="16" y2="48"/>
    <line x1="16" y1="48" x2="16" y2="16"/>
  </g>
  
  <!-- Gradients and Effects -->
  <defs>
    <!-- Background Gradient -->
    <linearGradient id="backgroundGradient" x1="0%" y1="0%" x2="100%" y2="100%">
      <stop offset="0%" style="stop-color:#3b82f6;stop-opacity:1" />
      <stop offset="50%" style="stop-color:#6366f1;stop-opacity:1" />
      <stop offset="100%" style="stop-color:#8b5cf6;stop-opacity:1" />
    </linearGradient>
    
    <!-- Border Gradient -->
    <linearGradient id="borderGradient" x1="0%" y1="0%" x2="100%" y2="100%">
      <stop offset="0%" style="stop-color:#1e40af;stop-opacity:1" />
      <stop offset="100%" style="stop-color:#7c3aed;stop-opacity:1" />
    </linearGradient>
    
    <!-- Letter Gradient -->
    <linearGradient id="letterGradient" x1="0%" y1="0%" x2="100%" y2="100%">
      <stop offset="0%" style="stop-color:#ffffff;stop-opacity:1" />
      <stop offset="50%" style="stop-color:#f8fafc;stop-opacity:1" />
      <stop offset="100%" style="stop-color:#e2e8f0;stop-opacity:1" />
    </linearGradient>
    
    <!-- Letter Stroke -->
    <linearGradient id="letterStroke" x1="0%" y1="0%" x2="100%" y2="100%">
      <stop offset="0%" style="stop-color:#cbd5e1;stop-opacity:1" />
      <stop offset="100%" style="stop-color:#94a3b8;stop-opacity:1" />
    </linearGradient>
    
    <!-- Letter Shadow -->
    <filter id="letterShadow" x="-50%" y="-50%" width="200%" height="200%">
      <feDropShadow dx="1" dy="2" stdDeviation="2" flood-color="#000000" flood-opacity="0.3"/>
    </filter>
    
    <!-- Glow Effect -->
    <filter id="glow" x="-50%" y="-50%" width="200%" height="200%">
      <feGaussianBlur stdDeviation="3" result="coloredBlur"/>
      <feMerge> 
        <feMergeNode in="coloredBlur"/>
        <feMergeNode in="SourceGraphic"/>
      </feMerge>
    </filter>
  </defs>
</svg>