<svg width="64" height="64" viewBox="0 0 64 64" fill="none" xmlns="http://www.w3.org/2000/svg">
  <!-- Background Circle with Professional Gradient -->
  <circle cx="32" cy="32" r="30" fill="url(#backgroundGradient)" stroke="url(#borderGradient)" stroke-width="2"/>
  
  <!-- Subtle Grid Pattern for Surveying Theme -->
  <g opacity="0.1" stroke="#ffffff" stroke-width="0.5">
    <line x1="16" y1="8" x2="16" y2="56"/>
    <line x1="24" y1="8" x2="24" y2="56"/>
    <line x1="40" y1="8" x2="40" y2="56"/>
    <line x1="48" y1="8" x2="48" y2="56"/>
    <line x1="8" y1="16" x2="56" y2="16"/>
    <line x1="8" y1="24" x2="56" y2="24"/>
    <line x1="8" y1="40" x2="56" y2="40"/>
    <line x1="8" y1="48" x2="56" y2="48"/>
  </g>
  
  <!-- GPS/Survey Points (Subtle) -->
  <g opacity="0.3">
    <circle cx="12" cy="12" r="1.5" fill="#fbbf24"/>
    <path d="M12 12 L24 24" stroke="#fbbf24" stroke-width="0.8" stroke-dasharray="1,1"/>
    
    <circle cx="52" cy="16" r="1.5" fill="#fbbf24"/>
    <path d="M52 16 L40 28" stroke="#fbbf24" stroke-width="0.8" stroke-dasharray="1,1"/>
    
    <circle cx="48" cy="52" r="1.5" fill="#fbbf24"/>
    <path d="M48 52 L36 40" stroke="#fbbf24" stroke-width="0.8" stroke-dasharray="1,1"/>
  </g>
  
  <!-- Main Letter 'S' - Beautifully Designed -->
  <g transform="translate(32, 32)">
    <!-- S Letter Path with Professional Styling -->
    <path d="M-10 -18 
             C-10 -22, -6 -26, -2 -26
             L10 -26
             C14 -26, 18 -22, 18 -18
             C18 -14, 14 -10, 10 -10
             L-2 -10
             C-4 -10, -6 -8, -6 -6
             C-6 -4, -4 -2, -2 -2
             L10 -2
             C14 -2, 18 2, 18 6
             C18 10, 14 14, 10 14
             L-10 14
             C-14 14, -18 10, -18 6
             C-18 2, -14 -2, -10 -2
             L2 -2
             C4 -2, 6 0, 6 2
             C6 4, 4 6, 2 6
             L-10 6
             C-14 6, -18 2, -18 -2
             Z" 
          fill="url(#letterGradient)" 
          stroke="url(#letterStroke)" 
          stroke-width="1"
          filter="url(#letterShadow)"/>
    
    <!-- Inner Highlight for Depth -->
    <path d="M-6 -22
             C-6 -24, -4 -26, -2 -26
             L8 -26
             C10 -26, 12 -24, 12 -22
             M-2 -6
             C0 -6, 2 -4, 2 -2
             L8 -2
             C10 -2, 12 0, 12 2
             C12 4, 10 6, 8 6
             L-8 6
             C-10 6, -12 4, -12 2" 
          fill="none" 
          stroke="rgba(255,255,255,0.4)" 
          stroke-width="1.5" 
          stroke-linecap="round"/>
  </g>
  
  <!-- Corner Survey Points -->
  <g fill="#10b981" opacity="0.6">
    <circle cx="16" cy="16" r="1"/>
    <circle cx="48" cy="16" r="1"/>
    <circle cx="16" cy="48" r="1"/>
    <circle cx="48" cy="48" r="1"/>
  </g>
  
  <!-- Connecting Survey Lines -->
  <g stroke="#10b981" stroke-width="0.5" opacity="0.4">
    <line x1="16" y1="16" x2="48" y2="16"/>
    <line x1="48" y1="16" x2="48" y2="48"/>
    <line x1="48" y1="48" x2="16" y2="48"/>
    <line x1="16" y1="48" x2="16" y2="16"/>
  </g>
  
  <!-- Gradients and Effects -->
  <defs>
    <!-- Background Gradient -->
    <linearGradient id="backgroundGradient" x1="0%" y1="0%" x2="100%" y2="100%">
      <stop offset="0%" style="stop-color:#3b82f6;stop-opacity:1" />
      <stop offset="50%" style="stop-color:#6366f1;stop-opacity:1" />
      <stop offset="100%" style="stop-color:#8b5cf6;stop-opacity:1" />
    </linearGradient>
    
    <!-- Border Gradient -->
    <linearGradient id="borderGradient" x1="0%" y1="0%" x2="100%" y2="100%">
      <stop offset="0%" style="stop-color:#1e40af;stop-opacity:1" />
      <stop offset="100%" style="stop-color:#7c3aed;stop-opacity:1" />
    </linearGradient>
    
    <!-- Letter Gradient -->
    <linearGradient id="letterGradient" x1="0%" y1="0%" x2="100%" y2="100%">
      <stop offset="0%" style="stop-color:#ffffff;stop-opacity:1" />
      <stop offset="50%" style="stop-color:#f8fafc;stop-opacity:1" />
      <stop offset="100%" style="stop-color:#e2e8f0;stop-opacity:1" />
    </linearGradient>
    
    <!-- Letter Stroke -->
    <linearGradient id="letterStroke" x1="0%" y1="0%" x2="100%" y2="100%">
      <stop offset="0%" style="stop-color:#cbd5e1;stop-opacity:1" />
      <stop offset="100%" style="stop-color:#94a3b8;stop-opacity:1" />
    </linearGradient>
    
    <!-- Letter Shadow -->
    <filter id="letterShadow" x="-50%" y="-50%" width="200%" height="200%">
      <feDropShadow dx="1" dy="2" stdDeviation="2" flood-color="#000000" flood-opacity="0.3"/>
    </filter>
    
    <!-- Glow Effect -->
    <filter id="glow" x="-50%" y="-50%" width="200%" height="200%">
      <feGaussianBlur stdDeviation="3" result="coloredBlur"/>
      <feMerge> 
        <feMergeNode in="coloredBlur"/>
        <feMergeNode in="SourceGraphic"/>
      </feMerge>
    </filter>
  </defs>
</svg>